PathFileType	4	(X/Y/Z)	C:\Users\°ÂÌØÂü\Desktop\20210112\bx_n_5_1801-Unnamed.trc
DataRate	CameraRate	NumFrames	NumMarkers	Units	OrigDataRate	OrigDataStartFrame	OrigNumFrames
50.00	50.00	       6	0	mm	50.00	288	       460
Frame#	Time	
		

288	5.740	-817.24268	305.56110	573.98145	-738.13495	-4.88040	665.11194	-605.71515	283.56125	453.15253	-702.44476	75.96448	208.55423	-540.84351	64.73248	535.20929	-681.85461	302.88782	559.72321	-696.37720	149.02316	207.01509	-590.30243	216.83406	171.50285	-671.19489	55.50616	152.90367	-609.20697	-73.56250	160.31760	-514.09113	2.59361	464.56100	-648.23779	-65.67866	164.16507	-560.13623	-48.42346	510.92010	-754.60138	224.17563	206.82938	-580.13953	289.39038	530.17566	-882.49298	296.12302	144.65555	-496.35336	231.72893	468.04633	-596.72943	26.50901	166.27043	-547.81421	-31.20659	163.33299	-673.64874	171.69189	151.58302				-660.20441	295.69849	160.03467	-624.54919	303.63885	159.53047	-554.06171	256.42120	162.44482	-527.98718	304.52432	146.57420	-317.51715	116.27314	1142.90723	-508.72717	275.41718	908.89807	-1035.03015	112.89848	659.39453	-517.84064	-72.40954	143.08470	-787.40216	48.49044	180.10555	-789.14734	170.59229	191.02466	-499.33020	-53.64810	924.90308	-511.14331	171.38692	527.48553	-629.27338	-52.05956	455.47485	-745.00806	-11.79074	209.91144	-875.85522	-78.73365	141.22168	-575.94806	-51.29429	542.43475				-816.29840	237.86917	659.75372	-825.61389	-77.47396	600.49280							-707.42792	235.82724	655.73926				-715.16821	-71.54820	574.12341	
289	5.760	-817.39148	306.23297	572.11444	-738.78119	-3.80249	663.56262	-605.67175	283.76141	453.31720	-702.56293	76.24294	208.29872	-540.42792	65.82333	535.19678	-682.21222	302.48877	558.89972	-696.57666	149.02319	206.79773	-590.38983	216.66098	171.71976	-671.43951	55.48727	152.89668	-609.03265	-73.08414	160.72621	-513.76569	3.68813	464.34286	-648.48785	-65.50372	164.16742	-559.81494	-47.94805	511.70221	-754.37030	224.09836	206.64244	-579.67743	289.14359	529.75482	-882.62134	296.14355	144.72720	-496.26480	231.81401	467.94250	-596.91455	26.40736	166.44817	-547.96564	-31.65171	164.30713	-673.18573	170.90787	152.08440				-660.21130	295.41550	160.04021	-624.64624	303.46875	159.63010	-554.29523	256.38992	162.72830	-527.87750	304.93616	147.16573	-317.39011	117.27334	1139.47766	-508.18735	275.51480	905.17139	-1035.09094	113.22887	656.47931	-517.65924	-72.24899	142.85823	-787.45013	48.52809	180.04538	-789.20331	170.24898	190.89359	-498.32755	-52.99520	920.86755	-511.10602	171.18495	527.70868	-629.09393	-51.13266	455.36215	-744.97992	-11.58018	210.05197	-875.85522	-78.73365	141.22168	-575.61652	-49.48468	542.00739				-816.43573	237.95721	656.93323	-825.46887	-77.21070	598.30481							-707.76849	235.74788	654.54034				-714.86853	-70.82719	572.75354	
290	5.780	-817.93176	305.31006	569.24963	-739.22083	-3.74457	662.59845	-605.71515	283.56125	453.15253	-702.36493	77.47184	208.49986	-540.72174	67.20429	534.98029	-681.90173	303.60684	558.03894	-696.57666	149.02319	206.79773	-590.28009	216.69632	171.64801	-671.30725	55.44032	152.85115	-608.83490	-72.74867	161.01436	-513.48651	4.63141	463.84787	-648.51691	-65.21566	164.30319	-559.06732	-46.25966	511.38260	-754.48529	223.88826	206.78510	-579.48541	289.17593	529.00763	-882.53302	296.10251	144.58684	-496.19403	231.89336	467.67996	-596.83014	26.63894	166.17941	-547.78217	-31.36772	163.90009	-673.19788	170.89862	151.98444				-660.16705	295.25394	160.07539	-624.72839	303.45401	159.56541	-554.13660	256.56851	162.68996	-528.30267	304.43021	146.56764	-316.81915	118.38559	1135.99866	-507.55649	275.69482	901.07257	-1034.85669	112.91151	653.72699	-517.77142	-72.32397	142.57181	-787.38159	48.86407	179.89919	-789.33368	170.36372	191.11855	-497.43887	-52.83662	917.99249	-510.91458	171.06342	527.60498	-628.56580	-50.05147	455.52646	-745.00916	-11.55056	210.09845	-875.81012	-78.38038	140.73924	-575.25482	-48.17236	541.26825				-816.22107	238.58263	655.34473	-825.51025	-76.93638	596.72614							-708.85785	236.01253	653.12329				-714.66693	-70.29620	572.00195	
291	5.800	-817.93427	305.35739	567.69458				-605.55957	283.96231	453.15030	-702.39911	77.32215	208.49660	-540.71051	68.06676	534.79437	-682.36072	303.78473	557.05579	-696.57666	149.02319	206.79773	-590.49341	217.15349	171.77692	-671.50372	55.77366	152.80165	-608.54553	-72.33095	161.27208	-512.88702	5.98552	464.25604	-648.49451	-64.93349	164.43967	-558.71564	-45.64075	511.14767	-754.41772	224.02213	206.64093	-579.43103	289.56268	529.11542	-882.64453	296.10654	144.70854	-496.17114	231.95049	467.52899	-596.80737	26.77040	165.85359	-547.90503	-31.54388	164.08923	-673.15625	170.73087	152.12910				-660.13672	295.47452	160.31271	-624.78741	303.75967	159.66360	-554.22382	256.55768	162.77228	-528.17725	304.56635	146.65282	-316.47614	118.99545	1132.74255	-506.64618	276.15253	898.05865	-1035.25476	113.38337	651.63086	-517.78247	-72.29845	142.66090	-787.38159	48.86407	179.89919	-789.12256	170.24655	190.91324	-496.18283	-52.25782	915.19739	-511.05566	171.48409	527.53741	-628.05017	-49.55070	455.75284	-744.84332	-11.29922	210.13451	-875.81012	-78.38038	140.73924	-574.82153	-47.76780	541.52795				-816.53497	238.19836	652.90063	-825.54810	-76.48096	595.38922							-709.25122	235.90067	652.11377				-714.78406	-70.14924	571.30310	
292	5.820	-818.24133	305.83167	566.64789				-605.87726	285.12515	453.22861	-702.72308	77.15448	208.18358	-540.60797	68.75363	534.86523	-682.38885	304.10669	556.67773	-696.42621	148.99031	206.89659	-590.49341	217.15349	171.77692	-671.50372	55.77366	152.80165	-608.33710	-71.61615	161.92273	-512.51178	6.54234	464.54410	-648.39929	-64.45930	164.90695	-558.53510	-45.06990	511.06461	-754.42371	224.12051	206.51250	-579.47827	290.28366	528.75146	-882.69916	296.16739	144.69322	-496.18909	232.84558	467.32501	-597.09808	27.06627	165.47021	-548.01733	-31.30634	163.79936	-672.46893	170.33521	152.32886				-660.25787	295.39951	160.16154	-624.60669	303.66138	159.55499	-554.25848	256.47766	162.75510	-528.30267	304.43021	146.56764	-315.50079	120.08192	1130.09302	-506.22809	276.44357	895.54395	-1035.01721	113.12389	649.91364	-517.88367	-72.39900	142.67390	-787.40137	48.83472	179.81293	-789.14624	170.30600	190.97734	-495.38168	-51.60311	912.78131	-511.19992	171.82997	527.44012	-627.95508	-49.44106	455.75876	-744.48883	-11.08628	210.45958	-875.96008	-78.32813	140.76349	-574.92987	-47.30679	541.71179				-816.55890	238.46140	651.72540	-825.47229	-76.67632	594.21613							-709.65228	236.17520	651.31970				-714.74500	-69.87950	570.60052	
293	5.840	-818.37872	305.77875	565.89832				-605.74878	285.43866	452.34180	-702.84625	77.39054	208.01945	-540.51056	68.88645	534.92242	-682.28558	304.62817	556.30365	-696.42621	148.99031	206.89659	-590.49341	217.15349	171.77692	-671.77313	55.89579	152.59290	-608.22632	-71.19816	162.62463	-512.40613	6.80871	464.47916	-648.23254	-64.32084	165.07043	-558.01825	-44.86211	510.98068	-754.48676	224.24318	206.55205	-579.81769	290.56586	528.59375	-882.66309	296.00577	144.60722	-496.08093	232.99176	467.31058	-597.09064	27.05860	165.75571	-548.19037	-31.40052	164.09866	-672.61548	170.23073	152.22482				-660.10425	295.50613	159.98106	-624.84338	303.92160	159.80852	-554.15881	256.64807	162.86038	-528.30267	304.43021	146.56764	-314.92770	120.66805	1127.99719	-505.95370	276.83591	893.97388	-1035.27563	113.09022	648.56598	-517.86017	-72.48672	142.99565	-787.38159	48.86407	179.89919	-789.32489	170.26259	191.00069	-494.07425	-51.48023	910.29974	-511.43582	172.27724	527.13104	-627.59998	-49.20569	455.39676	-744.72028	-11.15632	210.42715	-875.84045	-78.29161	140.64346	-574.58673	-47.38278	541.63513				-816.53925	238.31015	650.15430	-825.54492	-76.62888	593.45679							-710.07214	235.97906	649.76471				-714.47247	-69.65565	569.98480	
